<?xml version="1.0" standalone="no"?>
<!DOCTYPE svg PUBLIC "-//W3C//DTD SVG 20010904//EN"
 "http://www.w3.org/TR/2001/REC-SVG-20010904/DTD/svg10.dtd">
<svg version="1.0" xmlns="http://www.w3.org/2000/svg"
 width="120.000000pt" height="120.000000pt" viewBox="0 0 120.000000 120.000000"
 preserveAspectRatio="xMidYMid meet">
<metadata>
Created by potrace 1.14, written by Peter Selinger 2001-2017
</metadata>
<g transform="translate(0.000000,120.000000) scale(0.100000,-0.100000)"
fill="#000000" stroke="none">
<path d="M651 949 c-24 -11 -42 -21 -39 -24 2 -2 22 -7 44 -10 21 -4 53 -10
69 -14 38 -10 60 -7 115 18 48 21 47 22 -38 40 -72 15 -99 13 -151 -10z m112
-16 c-7 -2 -21 -2 -30 0 -10 3 -4 5 12 5 17 0 24 -2 18 -5z"/>
<path d="M835 903 c-22 -9 -43 -21 -46 -26 -8 -11 -10 -145 -3 -169 3 -10 11
-18 17 -18 25 0 97 36 101 50 3 11 4 10 5 -3 1 -10 -10 -22 -26 -28 -34 -13
-54 -39 -46 -63 3 -11 27 -42 54 -70 48 -50 49 -51 67 -31 11 11 33 45 50 75
35 63 34 67 -33 138 -40 43 -60 52 -68 30 -2 -7 -4 12 -2 42 3 96 -1 101 -70
73z m-5 -58 c0 -15 -18 -30 -27 -22 -2 3 -2 15 2 26 7 23 25 19 25 -4z m24
-48 c-3 -9 -10 -17 -15 -17 -11 0 -12 34 -2 44 11 11 24 -9 17 -27z m32 -29
c1 -9 -4 -19 -12 -22 -10 -4 -14 2 -14 20 0 28 22 29 26 2z m61 -112 c-4 -9
-11 -16 -17 -16 -11 0 -14 33 -3 44 11 10 26 -11 20 -28z"/>
<path d="M597 904 c-9 -10 -9 -166 1 -181 9 -14 138 -44 158 -36 18 7 17 169
-2 187 -7 8 -35 17 -61 21 -26 3 -57 9 -68 11 -11 3 -24 2 -28 -2z m53 -55 c0
-10 -4 -19 -8 -19 -15 0 -31 22 -25 36 7 18 33 5 33 -17z m87 -5 c9 -23 -11
-38 -26 -20 -13 16 -7 36 10 36 5 0 12 -7 16 -16z m-39 -47 c2 -12 -3 -17 -17
-17 -12 0 -21 6 -21 13 0 31 32 34 38 4z m-45 -30 c7 -19 -8 -41 -22 -33 -16
10 -14 46 3 46 8 0 16 -6 19 -13z m85 -30 c2 -10 -3 -17 -12 -17 -18 0 -29 16
-21 31 9 14 29 6 33 -14z"/>
<path d="M950 812 c0 -5 25 -34 55 -65 l55 -57 65 0 c36 0 65 3 65 8 0 4 -26
32 -58 63 -57 56 -58 57 -120 58 -34 0 -62 -3 -62 -7z m71 -28 c12 -14 11 -16
-5 -13 -11 2 -21 10 -24 17 -5 17 13 15 29 -4z m75 -11 c-8 -8 -36 5 -36 17 0
7 6 7 21 0 11 -7 18 -14 15 -17z m-26 -43 c8 -5 11 -12 7 -16 -4 -4 -15 0 -24
9 -18 18 -8 23 17 7z m70 0 c8 -5 12 -12 9 -15 -8 -8 -39 5 -39 16 0 11 11 11
30 -1z"/>
<path d="M1054 663 c-18 -18 -84 -131 -84 -144 0 -5 31 -9 70 -9 l69 0 41 69
c22 38 40 76 40 83 0 19 -117 20 -136 1z m66 -27 c0 -8 -7 -16 -15 -20 -15 -5
-21 14 -8 27 11 12 23 8 23 -7z m-40 -76 c0 -5 -9 -14 -20 -20 -15 -8 -20 -8
-20 3 0 8 3 17 7 20 10 10 33 8 33 -3z"/>
<path d="M125 642 c-39 -5 -82 -36 -101 -74 -21 -40 -14 -120 12 -149 44 -50
133 -63 199 -29 22 11 40 20 42 20 1 0 1 -20 -1 -45 -2 -30 -10 -51 -22 -60
-36 -28 -124 -13 -124 20 0 11 -13 15 -50 15 -49 0 -50 -1 -50 -29 0 -65 77
-116 172 -113 68 1 114 27 146 81 25 42 27 55 27 146 -1 117 -17 162 -71 196
-34 21 -112 30 -179 21z m140 -126 c8 -24 6 -31 -14 -47 -27 -22 -99 -26 -123
-6 -38 30 -21 83 30 89 59 7 96 -6 107 -36z"/>
<path d="M521 627 c-100 -47 -103 -202 -6 -243 58 -24 139 -16 174 18 l21 19
0 -46 c0 -58 -25 -85 -78 -85 -38 0 -80 28 -65 43 3 4 -19 7 -50 7 -51 0 -57
-2 -57 -21 0 -89 126 -148 237 -111 81 26 116 97 115 230 -1 91 -30 157 -82
187 -49 28 -151 29 -209 2z m165 -88 c22 -18 23 -50 3 -70 -24 -24 -110 -27
-133 -3 -27 27 -20 63 15 78 33 14 95 11 115 -5z"/>
</g>
</svg>
